STARTFONT 2.1
FONT -Hewlett Packard-User-Medium-R-Normal-Serif-26-200-72-72-M-140-HP-WA
SIZE 20 72 72
FONTBOUNDINGBOX 14 26 0 -7

STARTPROPERTIES 26
COPYRIGHT "(c)Copyright 1991, Hewlett Packard Company"
NOTICE "Hewlett Packard Co., 3000 Hanover St., Palo Alto, CA 94303, USA"
FONTNAME_REGISTRY ""
FOUNDRY "Hewlett Packard"
FAMILY_NAME "User"
WEIGHT_NAME "Medium"
SLANT "R"
ADD_STYLE_NAME "Serif"
SETWIDTH_NAME "Normal"
PIXEL_SIZE 26
POINT_SIZE 200
RESOLUTION_X 72
RESOLUTION_Y 72
SPACING "M"
AVERAGE_WIDTH 140
CHARSET_REGISTRY "HP"
CHARSET_ENCODING "WA"
CHARSET_COLLECTIONS "HP-WA"
FULL_NAME "User14x26"
CAP_HEIGHT 14
X_HEIGHT 9
WEIGHT 10
QUAD_WIDTH 14
DEFAULT_CHAR 32
FONT_DESCENT 7
FONT_ASCENT 19
ENDPROPERTIES

CHARS 235

STARTCHAR Kasratan
ENCODING 16
SWIDTH 857 0
DWIDTH 14 0
BBX 14 26 0 -7
BITMAP
0000
0000
0000
0000
0000
0000
0000
0000
0000
0000
0000
0000
0000
0000
0000
0000
0080
0100
0300
0300
0700
1B80
71FC
C7FC
1C7C
7000
ENDCHAR

STARTCHAR Desc
ENCODING 17
SWIDTH 857 0
DWIDTH 14 0
BBX 14 26 0 -7
BITMAP
0000
0000
0000
0000
0000
0038
01E0
0700
0008
0048
0248
0278
03F0
0180
0000
0000
0080
0100
0300
0300
0300
0380
01FC
01FC
007C
0000
ENDCHAR

STARTCHAR Desc
ENCODING 18
SWIDTH 857 0
DWIDTH 14 0
BBX 14 26 0 -7
BITMAP
0000
0000
0030
0058
0068
0038
007C
03C0
0004
0024
0124
013C
01F8
00C0
0000
0000
0080
0100
0300
0300
0300
0380
01FC
01FC
007C
0000
ENDCHAR

STARTCHAR Desc
ENCODING 19
SWIDTH 857 0
DWIDTH 14 0
BBX 14 26 0 -7
BITMAP
0000
0000
0000
0000
0008
0048
0248
0278
03F0
0180
001C
00F0
0380
0000
0000
0000
0080
0100
0300
0300
0300
0380
01FC
01FC
007C
0000
ENDCHAR

STARTCHAR Desc
ENCODING 20
SWIDTH 857 0
DWIDTH 14 0
BBX 14 26 0 -7
BITMAP
0000
0000
0000
0000
0000
0000
0000
0000
0000
0000
001C
00F0
0380
0000
0000
0000
0080
0100
0300
0300
0300
0380
01FC
01FC
007C
0000
ENDCHAR

STARTCHAR Desc
ENCODING 21
SWIDTH 857 0
DWIDTH 14 0
BBX 14 26 0 -7
BITMAP
0000
0000
0000
0000
0000
0000
0000
0030
0058
0068
0038
007C
03C0
0000
0000
0000
0080
0100
0300
0300
0300
0380
01FC
01FC
007C
0000
ENDCHAR

STARTCHAR Kasra
ENCODING 22
SWIDTH 857 0
DWIDTH 14 0
BBX 14 26 0 -7
BITMAP
0000
0000
0000
0000
0000
0000
0000
0000
0000
0000
0000
0000
0000
0000
0000
0000
0080
0100
0300
0300
0300
0380
01FC
07FC
3C7C
E000
ENDCHAR

STARTCHAR Desc
ENCODING 23
SWIDTH 857 0
DWIDTH 14 0
BBX 14 26 0 -7
BITMAP
0000
0000
0000
0000
0000
0000
0038
007C
0044
0044
007C
0038
0000
0000
0000
0000
0080
0100
0300
0300
0300
0380
01FC
01FC
007C
0000
ENDCHAR

STARTCHAR Desc
ENCODING 24
SWIDTH 857 0
DWIDTH 14 0
BBX 14 26 0 -7
BITMAP
0000
0000
0000
0000
0000
0000
0000
0004
0024
0124
013C
01F8
00C0
0000
0000
0000
0080
0100
0300
0300
0300
0380
01FC
01FC
007C
0000
ENDCHAR

STARTCHAR Ain
ENCODING 25
SWIDTH 857 0
DWIDTH 14 0
BBX 14 26 0 -7
BITMAP
0000
0000
0000
0000
0000
0000
0000
0000
0000
0000
0000
0700
0F80
1F80
0700
0F80
1DFC
18FC
303C
3000
3000
3800
3C08
1FF0
1FE0
0780
ENDCHAR

STARTCHAR Intl
ENCODING 26
SWIDTH 857 0
DWIDTH 14 0
BBX 14 26 0 -7
BITMAP
0000
0000
0000
0100
0300
0700
0700
0380
0300
0300
0300
0300
0300
0300
0300
0700
FF00
FE00
FC00
0000
0000
0000
0000
0000
0000
0000
ENDCHAR

STARTCHAR Lam
ENCODING 28
SWIDTH 857 0
DWIDTH 14 0
BBX 14 26 0 -7
BITMAP
0000
0000
0000
0010
0010
6030
7830
7C30
3670
0670
0370
03F0
01F0
01B0
01B0
0338
031C
061C
1C0C
7000
0000
0000
0000
0000
0000
0000
ENDCHAR

STARTCHAR Heh
ENCODING 29
SWIDTH 857 0
DWIDTH 14 0
BBX 14 26 0 -7
BITMAP
0000
0000
0000
0000
0000
0000
0020
0060
0060
00E0
01E0
0760
0E60
1C70
3CF0
3FF8
3FBC
1F1C
000C
0000
0000
0000
0000
0000
0000
0000
ENDCHAR

STARTCHAR PrintableSpace
ENCODING 32
SWIDTH 857 0
DWIDTH 14 0
BBX 14 26 0 -7
BITMAP
0000
0000
0000
0000
0000
0000
0000
0000
0000
0000
0000
0000
0000
0000
0000
0000
0000
0000
0000
0000
0000
0000
0000
0000
0000
0000
ENDCHAR

STARTCHAR Exclamation
ENCODING 33
SWIDTH 857 0
DWIDTH 14 0
BBX 14 26 0 -7
BITMAP
0000
0000
0000
0000
0300
0780
0780
0780
0780
0780
0300
0300
0300
0300
0000
0000
0300
0780
0780
0300
0000
0000
0000
0000
0000
0000
ENDCHAR

STARTCHAR NeutrlDblQuote
ENCODING 34
SWIDTH 857 0
DWIDTH 14 0
BBX 14 26 0 -7
BITMAP
0000
0000
0000
0000
1CE0
1CE0
1CE0
1CE0
0840
0840
0840
0000
0000
0000
0000
0000
0000
0000
0000
0000
0000
0000
0000
0000
0000
0000
ENDCHAR

STARTCHAR NumberSign
ENCODING 35
SWIDTH 857 0
DWIDTH 14 0
BBX 14 26 0 -7
BITMAP
0000
0000
0000
0000
0CC0
0CC0
0CC0
0CC0
3FF0
3FF0
0CC0
0CC0
0CC0
0CC0
3FF0
3FF0
0CC0
0CC0
0CC0
0CC0
0000
0000
0000
0000
0000
0000
ENDCHAR

STARTCHAR DollarSign
ENCODING 36
SWIDTH 857 0
DWIDTH 14 0
BBX 14 26 0 -7
BITMAP
0000
0000
0000
0300
0300
0FC0
1870
3030
3010
3800
1C00
0F00
03C0
00E0
0070
2030
3030
3860
0FC0
0300
0300
0000
0000
0000
0000
0000
ENDCHAR

STARTCHAR PerCentSign
ENCODING 37
SWIDTH 857 0
DWIDTH 14 0
BBX 14 26 0 -7
BITMAP
0000
0000
0000
0000
1E30
3330
3360
3360
1EC0
00C0
0180
0180
0300
0300
0600
06F0
0D98
0D98
1998
18F0
0000
0000
0000
0000
0000
0000
ENDCHAR

STARTCHAR Ampersand
ENCODING 38
SWIDTH 857 0
DWIDTH 14 0
BBX 14 26 0 -7
BITMAP
0000
0000
0000
0000
0700
0D80
18C0
18C0
18C0
18C0
0D80
0700
0E00
1B78
31B0
31A0
30E0
30C0
19E0
0F38
0000
0000
0000
0000
0000
0000
ENDCHAR

STARTCHAR SingleCloseQut
ENCODING 39
SWIDTH 857 0
DWIDTH 14 0
BBX 14 26 0 -7
BITMAP
0000
0000
0000
0000
0300
0780
0780
0380
0300
0600
0C00
0000
0000
0000
0000
0000
0000
0000
0000
0000
0000
0000
0000
0000
0000
0000
ENDCHAR

STARTCHAR OpenParen
ENCODING 40
SWIDTH 857 0
DWIDTH 14 0
BBX 14 26 0 -7
BITMAP
0000
0000
0000
0060
00C0
0180
0300
0300
0600
0600
0600
0600
0600
0600
0600
0600
0300
0300
0180
00C0
0060
0000
0000
0000
0000
0000
ENDCHAR

STARTCHAR CloseParen
ENCODING 41
SWIDTH 857 0
DWIDTH 14 0
BBX 14 26 0 -7
BITMAP
0000
0000
0000
0C00
0600
0300
0180
0180
00C0
00C0
00C0
00C0
00C0
00C0
00C0
00C0
0180
0180
0300
0600
0C00
0000
0000
0000
0000
0000
ENDCHAR

STARTCHAR Asterisk
ENCODING 42
SWIDTH 857 0
DWIDTH 14 0
BBX 14 26 0 -7
BITMAP
0000
0000
0000
0000
0000
0000
0000
0300
1320
3B70
1FE0
0780
0780
1FE0
3B70
1320
0300
0000
0000
0000
0000
0000
0000
0000
0000
0000
ENDCHAR

STARTCHAR PlusSign
ENCODING 43
SWIDTH 857 0
DWIDTH 14 0
BBX 14 26 0 -7
BITMAP
0000
0000
0000
0000
0000
0000
0000
0300
0300
0300
0300
3FF0
3FF0
0300
0300
0300
0300
0000
0000
0000
0000
0000
0000
0000
0000
0000
ENDCHAR

STARTCHAR Comma
ENCODING 44
SWIDTH 857 0
DWIDTH 14 0
BBX 14 26 0 -7
BITMAP
0000
0000
0000
0000
0000
0000
0000
0000
0000
0000
0000
0000
0000
0000
0000
0300
0780
0780
0380
0300
0600
0C00
0000
0000
0000
0000
ENDCHAR

STARTCHAR Hyphen
ENCODING 45
SWIDTH 857 0
DWIDTH 14 0
BBX 14 26 0 -7
BITMAP
0000
0000
0000
0000
0000
0000
0000
0000
0000
0000
0000
3FF0
3FF0
0000
0000
0000
0000
0000
0000
0000
0000
0000
0000
0000
0000
0000
ENDCHAR

STARTCHAR Period
ENCODING 46
SWIDTH 857 0
DWIDTH 14 0
BBX 14 26 0 -7
BITMAP
0000
0000
0000
0000
0000
0000
0000
0000
0000
0000
0000
0000
0000
0000
0000
0300
0780
0780
0300
0000
0000
0000
0000
0000
0000
0000
ENDCHAR

STARTCHAR Slash
ENCODING 47
SWIDTH 857 0
DWIDTH 14 0
BBX 14 26 0 -7
BITMAP
0000
0000
0000
0030
0030
0060
0060
00C0
00C0
0180
0180
0300
0300
0600
0600
0C00
0C00
1800
1800
3000
3000
0000
0000
0000
0000
0000
ENDCHAR

STARTCHAR Zero
ENCODING 48
SWIDTH 857 0
DWIDTH 14 0
BBX 14 26 0 -7
BITMAP
0000
0000
0000
0000
0000
0780
1CE0
1860
3030
3030
3030
3330
3330
3030
3030
3030
1860
1CE0
0780
0000
0000
0000
0000
0000
0000
0000
ENDCHAR

STARTCHAR One
ENCODING 49
SWIDTH 857 0
DWIDTH 14 0
BBX 14 26 0 -7
BITMAP
0000
0000
0000
0000
0000
0180
0780
0D80
0180
0180
0180
0180
0180
0180
0180
0180
0180
0180
0180
0000
0000
0000
0000
0000
0000
0000
ENDCHAR

STARTCHAR Two
ENCODING 50
SWIDTH 857 0
DWIDTH 14 0
BBX 14 26 0 -7
BITMAP
0000
0000
0000
0000
0000
07C0
0C60
1830
1830
0030
0060
00C0
0180
0300
0600
0C00
1810
1830
1FF0
0000
0000
0000
0000
0000
0000
0000
ENDCHAR

STARTCHAR Three
ENCODING 51
SWIDTH 857 0
DWIDTH 14 0
BBX 14 26 0 -7
BITMAP
0000
0000
0000
0000
0000
07C0
0C60
1830
1830
0030
0060
03C0
0060
0030
0030
0030
1830
1860
0FC0
0000
0000
0000
0000
0000
0000
0000
ENDCHAR

STARTCHAR Four
ENCODING 52
SWIDTH 857 0
DWIDTH 14 0
BBX 14 26 0 -7
BITMAP
0000
0000
0000
0000
0000
0180
0180
0300
0300
0600
0660
0C60
0C60
1860
1860
1FF8
0060
0060
0060
0000
0000
0000
0000
0000
0000
0000
ENDCHAR

STARTCHAR Five
ENCODING 53
SWIDTH 857 0
DWIDTH 14 0
BBX 14 26 0 -7
BITMAP
0000
0000
0000
0000
0000
0FE0
0C00
0C00
0C00
0C00
0FC0
0060
0030
0030
0030
0030
0030
1860
0FC0
0000
0000
0000
0000
0000
0000
0000
ENDCHAR

STARTCHAR Six
ENCODING 54
SWIDTH 857 0
DWIDTH 14 0
BBX 14 26 0 -7
BITMAP
0000
0000
0000
0000
0000
00E0
0380
0600
0C00
0C00
1800
1BC0
1C60
1830
1830
1830
1830
0C60
07C0
0000
0000
0000
0000
0000
0000
0000
ENDCHAR

STARTCHAR Seven
ENCODING 55
SWIDTH 857 0
DWIDTH 14 0
BBX 14 26 0 -7
BITMAP
0000
0000
0000
0000
0000
1FF0
0030
0060
0060
00C0
00C0
0180
0180
0300
0300
0300
0600
0600
0600
0000
0000
0000
0000
0000
0000
0000
ENDCHAR

STARTCHAR Eight
ENCODING 56
SWIDTH 857 0
DWIDTH 14 0
BBX 14 26 0 -7
BITMAP
0000
0000
0000
0000
0000
07C0
0C60
1830
1830
1830
0C60
07C0
0C60
1830
1830
1830
1830
0C60
07C0
0000
0000
0000
0000
0000
0000
0000
ENDCHAR

STARTCHAR Nine
ENCODING 57
SWIDTH 857 0
DWIDTH 14 0
BBX 14 26 0 -7
BITMAP
0000
0000
0000
0000
0000
07C0
0C60
1830
1830
1830
1830
0C70
07B0
0030
0060
0060
00C0
0380
0E00
0000
0000
0000
0000
0000
0000
0000
ENDCHAR

STARTCHAR Colon
ENCODING 58
SWIDTH 857 0
DWIDTH 14 0
BBX 14 26 0 -7
BITMAP
0000
0000
0000
0000
0000
0000
0000
0000
0000
0000
0300
0780
0780
0300
0000
0300
0780
0780
0300
0000
0000
0000
0000
0000
0000
0000
ENDCHAR

STARTCHAR Simicolon
ENCODING 59
SWIDTH 857 0
DWIDTH 14 0
BBX 14 26 0 -7
BITMAP
0000
0000
0000
0000
0000
0000
0000
0000
0000
0000
0300
0780
0780
0300
0000
0300
0780
0780
0380
0300
0600
0C00
0000
0000
0000
0000
ENDCHAR

STARTCHAR LessThanSign
ENCODING 60
SWIDTH 857 0
DWIDTH 14 0
BBX 14 26 0 -7
BITMAP
0000
0000
0000
0000
0000
0000
0000
0030
00F0
03C0
0F00
3C00
3C00
0F00
03C0
00F0
0030
0000
0000
0000
0000
0000
0000
0000
0000
0000
ENDCHAR

STARTCHAR EqualsSign
ENCODING 61
SWIDTH 857 0
DWIDTH 14 0
BBX 14 26 0 -7
BITMAP
0000
0000
0000
0000
0000
0000
0000
0000
0000
3FF0
3FF0
0000
0000
3FF0
3FF0
0000
0000
0000
0000
0000
0000
0000
0000
0000
0000
0000
ENDCHAR

STARTCHAR GreatrThanSign
ENCODING 62
SWIDTH 857 0
DWIDTH 14 0
BBX 14 26 0 -7
BITMAP
0000
0000
0000
0000
0000
0000
0000
3000
3C00
0F00
03C0
00F0
00F0
03C0
0F00
3C00
3000
0000
0000
0000
0000
0000
0000
0000
0000
0000
ENDCHAR

STARTCHAR QuestionMark
ENCODING 63
SWIDTH 857 0
DWIDTH 14 0
BBX 14 26 0 -7
BITMAP
0000
0000
0000
0000
07C0
0CE0
1E70
1E70
0C70
00E0
01C0
0380
0300
0300
0000
0000
0300
0780
0780
0300
0000
0000
0000
0000
0000
0000
ENDCHAR

STARTCHAR CommerclAtSign
ENCODING 64
SWIDTH 857 0
DWIDTH 14 0
BBX 14 26 0 -7
BITMAP
0000
0000
0000
0000
07C0
1C70
1830
3018
3018
3358
36D8
36D8
36D8
36D8
36D8
3370
3000
1800
1C30
07E0
0000
0000
0000
0000
0000
0000
ENDCHAR

STARTCHAR A
ENCODING 65
SWIDTH 857 0
DWIDTH 14 0
BBX 14 26 0 -7
BITMAP
0000
0000
0000
0000
0000
0300
0300
0780
0780
04C0
0CC0
0CC0
0860
1860
1FE0
1030
3030
3030
7878
0000
0000
0000
0000
0000
0000
0000
ENDCHAR

STARTCHAR B
ENCODING 66
SWIDTH 857 0
DWIDTH 14 0
BBX 14 26 0 -7
BITMAP
0000
0000
0000
0000
0000
3F80
18C0
1860
1860
1860
18C0
1FC0
1860
1830
1830
1830
1830
1860
3FC0
0000
0000
0000
0000
0000
0000
0000
ENDCHAR

STARTCHAR C
ENCODING 67
SWIDTH 857 0
DWIDTH 14 0
BBX 14 26 0 -7
BITMAP
0000
0000
0000
0000
0000
07D0
0C70
1830
1810
3000
3000
3000
3000
3000
3000
1810
1830
0C60
07C0
0000
0000
0000
0000
0000
0000
0000
ENDCHAR

STARTCHAR D
ENCODING 68
SWIDTH 857 0
DWIDTH 14 0
BBX 14 26 0 -7
BITMAP
0000
0000
0000
0000
0000
3F80
18E0
1830
1830
1818
1818
1818
1818
1818
1818
1830
1830
18E0
3F80
0000
0000
0000
0000
0000
0000
0000
ENDCHAR

STARTCHAR E
ENCODING 69
SWIDTH 857 0
DWIDTH 14 0
BBX 14 26 0 -7
BITMAP
0000
0000
0000
0000
0000
3FF0
1830
1810
1810
1880
1880
1F80
1880
1880
1800
1810
1810
1830
3FF0
0000
0000
0000
0000
0000
0000
0000
ENDCHAR

STARTCHAR F
ENCODING 70
SWIDTH 857 0
DWIDTH 14 0
BBX 14 26 0 -7
BITMAP
0000
0000
0000
0000
0000
3FF0
1830
1810
1810
1880
1880
1F80
1880
1880
1800
1800
1800
1800
3E00
0000
0000
0000
0000
0000
0000
0000
ENDCHAR

STARTCHAR G
ENCODING 71
SWIDTH 857 0
DWIDTH 14 0
BBX 14 26 0 -7
BITMAP
0000
0000
0000
0000
0000
07D0
0C70
1830
1810
3000
3000
3000
30F8
3030
3030
1830
1830
0C70
07C0
0000
0000
0000
0000
0000
0000
0000
ENDCHAR

STARTCHAR H
ENCODING 72
SWIDTH 857 0
DWIDTH 14 0
BBX 14 26 0 -7
BITMAP
0000
0000
0000
0000
0000
3C78
1830
1830
1830
1830
1830
1FF0
1830
1830
1830
1830
1830
1830
3C78
0000
0000
0000
0000
0000
0000
0000
ENDCHAR

STARTCHAR I
ENCODING 73
SWIDTH 857 0
DWIDTH 14 0
BBX 14 26 0 -7
BITMAP
0000
0000
0000
0000
0000
1FE0
0300
0300
0300
0300
0300
0300
0300
0300
0300
0300
0300
0300
1FE0
0000
0000
0000
0000
0000
0000
0000
ENDCHAR

STARTCHAR J
ENCODING 74
SWIDTH 857 0
DWIDTH 14 0
BBX 14 26 0 -7
BITMAP
0000
0000
0000
0000
0000
07F0
00C0
00C0
00C0
00C0
00C0
00C0
00C0
00C0
00C0
30C0
30C0
1980
0F00
0000
0000
0000
0000
0000
0000
0000
ENDCHAR

STARTCHAR K
ENCODING 75
SWIDTH 857 0
DWIDTH 14 0
BBX 14 26 0 -7
BITMAP
0000
0000
0000
0000
0000
3C78
1830
1860
18C0
1980
1B00
1F80
1D80
18C0
18C0
1860
1860
1830
3C78
0000
0000
0000
0000
0000
0000
0000
ENDCHAR

STARTCHAR L
ENCODING 76
SWIDTH 857 0
DWIDTH 14 0
BBX 14 26 0 -7
BITMAP
0000
0000
0000
0000
0000
3C00
1800
1800
1800
1800
1800
1800
1800
1800
1800
1810
1810
1830
3FF0
0000
0000
0000
0000
0000
0000
0000
ENDCHAR

STARTCHAR M
ENCODING 77
SWIDTH 857 0
DWIDTH 14 0
BBX 14 26 0 -7
BITMAP
0000
0000
0000
0000
0000
7038
3030
3870
3870
3CF0
34B0
37B0
3330
3330
3030
3030
3030
3030
7878
0000
0000
0000
0000
0000
0000
0000
ENDCHAR

STARTCHAR N
ENCODING 78
SWIDTH 857 0
DWIDTH 14 0
BBX 14 26 0 -7
BITMAP
0000
0000
0000
0000
0000
3878
1C30
1C30
1E30
1E30
1B30
1B30
19B0
19B0
18F0
18F0
1870
1870
3C30
0000
0000
0000
0000
0000
0000
0000
ENDCHAR

STARTCHAR O
ENCODING 79
SWIDTH 857 0
DWIDTH 14 0
BBX 14 26 0 -7
BITMAP
0000
0000
0000
0000
0000
07C0
0C60
1830
1830
3018
3018
3018
3018
3018
3018
1830
1830
0C60
07C0
0000
0000
0000
0000
0000
0000
0000
ENDCHAR

STARTCHAR P
ENCODING 80
SWIDTH 857 0
DWIDTH 14 0
BBX 14 26 0 -7
BITMAP
0000
0000
0000
0000
0000
3FC0
1860
1830
1830
1830
1830
1860
1FC0
1800
1800
1800
1800
1800
3E00
0000
0000
0000
0000
0000
0000
0000
ENDCHAR

STARTCHAR Q
ENCODING 81
SWIDTH 857 0
DWIDTH 14 0
BBX 14 26 0 -7
BITMAP
0000
0000
0000
0000
0000
07C0
0C60
1830
1830
3018
3018
3018
3018
3018
3018
1830
19B0
0DE0
07C0
00C0
0060
0030
0000
0000
0000
0000
ENDCHAR

STARTCHAR R
ENCODING 82
SWIDTH 857 0
DWIDTH 14 0
BBX 14 26 0 -7
BITMAP
0000
0000
0000
0000
0000
3FC0
1860
1830
1830
1830
1830
1860
1FC0
18C0
18C0
1860
1860
1830
3C38
0000
0000
0000
0000
0000
0000
0000
ENDCHAR

STARTCHAR S
ENCODING 83
SWIDTH 857 0
DWIDTH 14 0
BBX 14 26 0 -7
BITMAP
0000
0000
0000
0000
0000
0FA0
18E0
3060
3020
3000
1C00
0F00
03C0
00E0
0030
2030
3030
3860
2FC0
0000
0000
0000
0000
0000
0000
0000
ENDCHAR

STARTCHAR T
ENCODING 84
SWIDTH 857 0
DWIDTH 14 0
BBX 14 26 0 -7
BITMAP
0000
0000
0000
0000
0000
3FF0
3330
2310
2310
0300
0300
0300
0300
0300
0300
0300
0300
0300
0FC0
0000
0000
0000
0000
0000
0000
0000
ENDCHAR

STARTCHAR U
ENCODING 85
SWIDTH 857 0
DWIDTH 14 0
BBX 14 26 0 -7
BITMAP
0000
0000
0000
0000
0000
3C78
1830
1830
1830
1830
1830
1830
1830
1830
1830
1830
1830
0C60
07C0
0000
0000
0000
0000
0000
0000
0000
ENDCHAR

STARTCHAR V
ENCODING 86
SWIDTH 857 0
DWIDTH 14 0
BBX 14 26 0 -7
BITMAP
0000
0000
0000
0000
0000
7878
3030
3030
1820
1860
1860
0C40
0CC0
0CC0
0680
0780
0300
0300
0300
0000
0000
0000
0000
0000
0000
0000
ENDCHAR

STARTCHAR W
ENCODING 87
SWIDTH 857 0
DWIDTH 14 0
BBX 14 26 0 -7
BITMAP
0000
0000
0000
0000
0000
7878
3030
3030
3030
3330
3330
37B0
37B0
34B0
1CE0
1CE0
1860
1860
1860
0000
0000
0000
0000
0000
0000
0000
ENDCHAR

STARTCHAR X
ENCODING 88
SWIDTH 857 0
DWIDTH 14 0
BBX 14 26 0 -7
BITMAP
0000
0000
0000
0000
0000
3C78
1830
0C60
0C60
06C0
06C0
0380
0380
06C0
06C0
0C60
0C60
1830
3C78
0000
0000
0000
0000
0000
0000
0000
ENDCHAR

STARTCHAR Y
ENCODING 89
SWIDTH 857 0
DWIDTH 14 0
BBX 14 26 0 -7
BITMAP
0000
0000
0000
0000
0000
7878
3030
1860
1860
0CC0
0CC0
0780
0780
0300
0300
0300
0300
0300
0FC0
0000
0000
0000
0000
0000
0000
0000
ENDCHAR

STARTCHAR Z
ENCODING 90
SWIDTH 857 0
DWIDTH 14 0
BBX 14 26 0 -7
BITMAP
0000
0000
0000
0000
0000
3FF0
3030
2060
20C0
00C0
0180
0300
0300
0600
0C00
0C10
1810
3030
3FF0
0000
0000
0000
0000
0000
0000
0000
ENDCHAR

STARTCHAR OpenBracket
ENCODING 91
SWIDTH 857 0
DWIDTH 14 0
BBX 14 26 0 -7
BITMAP
0000
0000
0000
03E0
0300
0300
0300
0300
0300
0300
0300
0300
0300
0300
0300
0300
0300
0300
0300
0300
03E0
0000
0000
0000
0000
0000
ENDCHAR

STARTCHAR BackSlash
ENCODING 92
SWIDTH 857 0
DWIDTH 14 0
BBX 14 26 0 -7
BITMAP
0000
0000
0000
3000
3000
1800
1800
0C00
0C00
0600
0600
0300
0300
0180
0180
00C0
00C0
0060
0060
0030
0030
0000
0000
0000
0000
0000
ENDCHAR

STARTCHAR CloseBracket
ENCODING 93
SWIDTH 857 0
DWIDTH 14 0
BBX 14 26 0 -7
BITMAP
0000
0000
0000
0F80
0180
0180
0180
0180
0180
0180
0180
0180
0180
0180
0180
0180
0180
0180
0180
0180
0F80
0000
0000
0000
0000
0000
ENDCHAR

STARTCHAR Circumflex
ENCODING 94
SWIDTH 857 0
DWIDTH 14 0
BBX 14 26 0 -7
BITMAP
0000
0000
0000
0000
0000
0300
0780
0CC0
1860
0000
0000
0000
0000
0000
0000
0000
0000
0000
0000
0000
0000
0000
0000
0000
0000
0000
ENDCHAR

STARTCHAR Underscore
ENCODING 95
SWIDTH 857 0
DWIDTH 14 0
BBX 14 26 0 -7
BITMAP
0000
0000
0000
0000
0000
0000
0000
0000
0000
0000
0000
0000
0000
0000
0000
0000
0000
0000
0000
FFFC
FFFC
0000
0000
0000
0000
0000
ENDCHAR

STARTCHAR SingleOpenQuot
ENCODING 96
SWIDTH 857 0
DWIDTH 14 0
BBX 14 26 0 -7
BITMAP
0000
0000
0000
0000
00C0
0180
0300
0700
0780
0780
0300
0000
0000
0000
0000
0000
0000
0000
0000
0000
0000
0000
0000
0000
0000
0000
ENDCHAR

STARTCHAR a
ENCODING 97
SWIDTH 857 0
DWIDTH 14 0
BBX 14 26 0 -7
BITMAP
0000
0000
0000
0000
0000
0000
0000
0000
0000
0000
07C0
1CE0
1860
0060
0FE0
1860
3060
39F0
1F60
0000
0000
0000
0000
0000
0000
0000
ENDCHAR

STARTCHAR b
ENCODING 98
SWIDTH 857 0
DWIDTH 14 0
BBX 14 26 0 -7
BITMAP
0000
0000
0000
0000
0000
1800
3800
1800
1800
1800
1BC0
1E70
1C30
1818
1818
1818
1C30
1E70
1BC0
0000
0000
0000
0000
0000
0000
0000
ENDCHAR

STARTCHAR c
ENCODING 99
SWIDTH 857 0
DWIDTH 14 0
BBX 14 26 0 -7
BITMAP
0000
0000
0000
0000
0000
0000
0000
0000
0000
0000
03F0
0E30
0C30
1800
1800
1800
0C30
0E70
03C0
0000
0000
0000
0000
0000
0000
0000
ENDCHAR

STARTCHAR d
ENCODING 100
SWIDTH 857 0
DWIDTH 14 0
BBX 14 26 0 -7
BITMAP
0000
0000
0000
0000
0000
0030
0070
0030
0030
0030
07B0
1CF0
1870
3030
3030
3030
1870
1CF8
07B0
0000
0000
0000
0000
0000
0000
0000
ENDCHAR

STARTCHAR e
ENCODING 101
SWIDTH 857 0
DWIDTH 14 0
BBX 14 26 0 -7
BITMAP
0000
0000
0000
0000
0000
0000
0000
0000
0000
0000
0780
1CE0
1860
3030
3FF0
3000
1830
1C70
07C0
0000
0000
0000
0000
0000
0000
0000
ENDCHAR

STARTCHAR f
ENCODING 102
SWIDTH 857 0
DWIDTH 14 0
BBX 14 26 0 -7
BITMAP
0000
0000
0000
0000
0000
01E0
0330
0600
0600
0600
3FE0
0600
0600
0600
0600
0600
0600
0600
3FE0
0000
0000
0000
0000
0000
0000
0000
ENDCHAR

STARTCHAR g
ENCODING 103
SWIDTH 857 0
DWIDTH 14 0
BBX 14 26 0 -7
BITMAP
0000
0000
0000
0000
0000
0000
0000
0000
0000
0018
0FB8
18E0
3060
3060
18C0
0F80
1800
0FE0
1830
3030
3030
1860
0FC0
0000
0000
0000
ENDCHAR

STARTCHAR h
ENCODING 104
SWIDTH 857 0
DWIDTH 14 0
BBX 14 26 0 -7
BITMAP
0000
0000
0000
0000
0000
1800
3800
1800
1800
1800
1BC0
1CE0
1860
1860
1860
1860
1860
1860
3CF0
0000
0000
0000
0000
0000
0000
0000
ENDCHAR

STARTCHAR i
ENCODING 105
SWIDTH 857 0
DWIDTH 14 0
BBX 14 26 0 -7
BITMAP
0000
0000
0000
0000
0000
0180
03C0
0180
0000
0000
0180
0F80
0180
0180
0180
0180
0180
0180
0FF0
0000
0000
0000
0000
0000
0000
0000
ENDCHAR

STARTCHAR j
ENCODING 106
SWIDTH 857 0
DWIDTH 14 0
BBX 14 26 0 -7
BITMAP
0000
0000
0000
0000
0000
0180
03C0
0180
0000
0000
0180
0F80
0180
0180
0180
0180
0180
0180
0180
0180
6180
7300
1E00
0000
0000
0000
ENDCHAR

STARTCHAR k
ENCODING 107
SWIDTH 857 0
DWIDTH 14 0
BBX 14 26 0 -7
BITMAP
0000
0000
0000
0000
0000
1800
3800
1800
1800
1800
19F0
18C0
1980
1B00
1F00
1980
18C0
1868
3C30
0000
0000
0000
0000
0000
0000
0000
ENDCHAR

STARTCHAR l
ENCODING 108
SWIDTH 857 0
DWIDTH 14 0
BBX 14 26 0 -7
BITMAP
0000
0000
0000
0000
0000
0300
0F00
0300
0300
0300
0300
0300
0300
0300
0300
0300
0300
0300
1FE0
0000
0000
0000
0000
0000
0000
0000
ENDCHAR

STARTCHAR m
ENCODING 109
SWIDTH 857 0
DWIDTH 14 0
BBX 14 26 0 -7
BITMAP
0000
0000
0000
0000
0000
0000
0000
0000
0000
0000
6E70
F398
6318
6318
6318
6318
6318
6318
F7BC
0000
0000
0000
0000
0000
0000
0000
ENDCHAR

STARTCHAR n
ENCODING 110
SWIDTH 857 0
DWIDTH 14 0
BBX 14 26 0 -7
BITMAP
0000
0000
0000
0000
0000
0000
0000
0000
0000
0000
1BC0
3CE0
1860
1860
1860
1860
1860
1860
3CF0
0000
0000
0000
0000
0000
0000
0000
ENDCHAR

STARTCHAR o
ENCODING 111
SWIDTH 857 0
DWIDTH 14 0
BBX 14 26 0 -7
BITMAP
0000
0000
0000
0000
0000
0000
0000
0000
0000
0000
0780
1CE0
1860
3030
3030
3030
1860
1CE0
0780
0000
0000
0000
0000
0000
0000
0000
ENDCHAR

STARTCHAR p
ENCODING 112
SWIDTH 857 0
DWIDTH 14 0
BBX 14 26 0 -7
BITMAP
0000
0000
0000
0000
0000
0000
0000
0000
0000
0000
1BC0
3E70
1C30
1818
1818
1818
1C30
1E70
1BC0
1800
1800
1800
3E00
0000
0000
0000
ENDCHAR

STARTCHAR q
ENCODING 113
SWIDTH 857 0
DWIDTH 14 0
BBX 14 26 0 -7
BITMAP
0000
0000
0000
0000
0000
0000
0000
0000
0000
0000
0790
1CF0
1870
3030
3030
3030
1870
1CF0
07B0
0030
0030
0030
00F8
0000
0000
0000
ENDCHAR

STARTCHAR r
ENCODING 114
SWIDTH 857 0
DWIDTH 14 0
BBX 14 26 0 -7
BITMAP
0000
0000
0000
0000
0000
0000
0000
0000
0000
0000
0CE0
3D70
0E60
0C00
0C00
0C00
0C00
0C00
3F80
0000
0000
0000
0000
0000
0000
0000
ENDCHAR

STARTCHAR s
ENCODING 115
SWIDTH 857 0
DWIDTH 14 0
BBX 14 26 0 -7
BITMAP
0000
0000
0000
0000
0000
0000
0000
0000
0000
0000
07D0
1C70
1830
0E10
07C0
10E0
1830
1C70
17C0
0000
0000
0000
0000
0000
0000
0000
ENDCHAR

STARTCHAR t
ENCODING 116
SWIDTH 857 0
DWIDTH 14 0
BBX 14 26 0 -7
BITMAP
0000
0000
0000
0000
0000
0000
0000
0600
0600
0600
3FE0
0600
0600
0600
0600
0600
0600
0630
03E0
0000
0000
0000
0000
0000
0000
0000
ENDCHAR

STARTCHAR u
ENCODING 117
SWIDTH 857 0
DWIDTH 14 0
BBX 14 26 0 -7
BITMAP
0000
0000
0000
0000
0000
0000
0000
0000
0000
0000
1860
38E0
1860
1860
1860
1860
1860
1CF0
0F60
0000
0000
0000
0000
0000
0000
0000
ENDCHAR

STARTCHAR v
ENCODING 118
SWIDTH 857 0
DWIDTH 14 0
BBX 14 26 0 -7
BITMAP
0000
0000
0000
0000
0000
0000
0000
0000
0000
0000
3C78
1830
0C60
0C60
06C0
06C0
0380
0380
0100
0000
0000
0000
0000
0000
0000
0000
ENDCHAR

STARTCHAR w
ENCODING 119
SWIDTH 857 0
DWIDTH 14 0
BBX 14 26 0 -7
BITMAP
0000
0000
0000
0000
0000
0000
0000
0000
0000
0000
7878
3030
3330
3330
37B0
14A0
1CE0
1860
1860
0000
0000
0000
0000
0000
0000
0000
ENDCHAR

STARTCHAR x
ENCODING 120
SWIDTH 857 0
DWIDTH 14 0
BBX 14 26 0 -7
BITMAP
0000
0000
0000
0000
0000
0000
0000
0000
0000
0000
3CF0
1860
0CC0
0780
0300
0780
0CC0
1860
3CF0
0000
0000
0000
0000
0000
0000
0000
ENDCHAR

STARTCHAR y
ENCODING 121
SWIDTH 857 0
DWIDTH 14 0
BBX 14 26 0 -7
BITMAP
0000
0000
0000
0000
0000
0000
0000
0000
0000
0000
3C78
1830
0C20
0C60
0660
0640
03C0
0380
0180
0300
3300
3600
1C00
0000
0000
0000
ENDCHAR

STARTCHAR z
ENCODING 122
SWIDTH 857 0
DWIDTH 14 0
BBX 14 26 0 -7
BITMAP
0000
0000
0000
0000
0000
0000
0000
0000
0000
0000
1FE0
1860
10C0
0180
0300
0600
0C20
1860
1FE0
0000
0000
0000
0000
0000
0000
0000
ENDCHAR

STARTCHAR OpenBrace
ENCODING 123
SWIDTH 857 0
DWIDTH 14 0
BBX 14 26 0 -7
BITMAP
0000
0000
0000
00E0
0180
0180
0180
0180
0180
0180
0300
0E00
0300
0180
0180
0180
0180
0180
0180
0180
00E0
0000
0000
0000
0000
0000
ENDCHAR

STARTCHAR LongVertMark
ENCODING 124
SWIDTH 857 0
DWIDTH 14 0
BBX 14 26 0 -7
BITMAP
0000
0000
0000
0000
0300
0300
0300
0300
0300
0300
0300
0300
0300
0300
0300
0300
0300
0300
0300
0300
0000
0000
0000
0000
0000
0000
ENDCHAR

STARTCHAR CloseBrace
ENCODING 125
SWIDTH 857 0
DWIDTH 14 0
BBX 14 26 0 -7
BITMAP
0000
0000
0000
0E00
0300
0300
0300
0300
0300
0300
0180
00E0
0180
0300
0300
0300
0300
0300
0300
0300
0E00
0000
0000
0000
0000
0000
ENDCHAR

STARTCHAR OneWavyLine
ENCODING 126
SWIDTH 857 0
DWIDTH 14 0
BBX 14 26 0 -7
BITMAP
0000
0000
0000
0000
0000
0000
0000
0000
0000
0000
1C10
3F10
23F0
20E0
0000
0000
0000
0000
0000
0000
0000
0000
0000
0000
0000
0000
ENDCHAR

STARTCHAR Khah
ENCODING 127
SWIDTH 857 0
DWIDTH 14 0
BBX 14 26 0 -7
BITMAP
0000
0000
0000
0000
0000
0600
0F00
0600
0000
0000
3800
7E00
7F80
47F8
01F8
1FF8
FF80
FC00
E000
0000
0000
0000
0000
0000
0000
0000
ENDCHAR

STARTCHAR Lam
ENCODING 128
SWIDTH 857 0
DWIDTH 14 0
BBX 14 26 0 -7
BITMAP
6000
8000
D800
7010
C010
7030
7830
3C30
1670
0370
0370
01F0
01F0
01B0
01B0
0338
031C
061C
1C0C
7000
0000
0000
0000
0000
0000
0000
ENDCHAR

STARTCHAR Line
ENCODING 129
SWIDTH 857 0
DWIDTH 14 0
BBX 14 26 0 -7
BITMAP
0000
0000
0000
0000
0000
0000
0000
0000
0000
0000
0000
0080
0100
0300
0300
0380
03FC
01FC
007C
0000
0000
0000
0000
0000
0000
0000
ENDCHAR

STARTCHAR Descender
ENCODING 130
SWIDTH 857 0
DWIDTH 14 0
BBX 14 26 0 -7
BITMAP
0000
0000
0000
0000
0000
0000
0000
0000
0000
0000
0000
0000
0000
0000
0000
0000
0080
0100
0300
0300
0300
0380
01FC
01FC
007C
0000
ENDCHAR

STARTCHAR Alef
ENCODING 131
SWIDTH 857 0
DWIDTH 14 0
BBX 14 26 0 -7
BITMAP
0700
3C00
E380
1E00
7100
0300
0300
0300
0300
0300
0300
0300
0300
0300
0300
0380
01FC
01FC
007C
0000
0000
0000
0000
0000
0000
0000
ENDCHAR

STARTCHAR Line
ENCODING 132
SWIDTH 857 0
DWIDTH 14 0
BBX 14 26 0 -7
BITMAP
0000
0018
003C
0034
0634
0F1C
0B78
03E8
0380
0600
0000
0080
0100
0300
0300
0380
03FC
01FC
007C
0000
0000
0000
0000
0000
0000
0000
ENDCHAR

STARTCHAR Kasratan
ENCODING 133
SWIDTH 857 0
DWIDTH 14 0
BBX 14 26 0 -7
BITMAP
0000
0000
0000
0000
0000
0000
0000
0000
0000
0000
0000
0080
0100
0300
0300
0380
03FC
01FC
007C
0000
0038
01E0
071C
00F0
0380
0000
ENDCHAR

STARTCHAR Line
ENCODING 134
SWIDTH 857 0
DWIDTH 14 0
BBX 14 26 0 -7
BITMAP
0000
0038
01E0
0708
0048
0248
0278
03F0
0180
0000
0000
0080
0100
0300
0300
0380
03FC
01FC
007C
0000
0000
0000
0000
0000
0000
0000
ENDCHAR

STARTCHAR Line
ENCODING 135
SWIDTH 857 0
DWIDTH 14 0
BBX 14 26 0 -7
BITMAP
0300
0580
0680
03C0
0700
3C20
0120
0920
09E0
0FC0
0600
0080
0100
0300
0300
0380
03FC
01FC
007C
0000
0000
0000
0000
0000
0000
0000
ENDCHAR

STARTCHAR Line
ENCODING 136
SWIDTH 857 0
DWIDTH 14 0
BBX 14 26 0 -7
BITMAP
0000
0008
0048
0248
0278
03F0
0180
001C
00F0
0380
0000
0080
0100
0300
0300
0380
03FC
01FC
007C
0000
0000
0000
0000
0000
0000
0000
ENDCHAR

STARTCHAR Line
ENCODING 137
SWIDTH 857 0
DWIDTH 14 0
BBX 14 26 0 -7
BITMAP
0000
0000
0000
0000
0000
0000
001C
00F0
0380
0000
0000
0080
0100
0300
0300
0380
03FC
01FC
007C
0000
0000
0000
0000
0000
0000
0000
ENDCHAR

STARTCHAR Line
ENCODING 138
SWIDTH 857 0
DWIDTH 14 0
BBX 14 26 0 -7
BITMAP
0000
0000
0000
0030
0058
0068
0038
007C
03C0
0000
0000
0080
0100
0300
0300
0380
03FC
01FC
007C
0000
0000
0000
0000
0000
0000
0000
ENDCHAR

STARTCHAR Kasra
ENCODING 139
SWIDTH 857 0
DWIDTH 14 0
BBX 14 26 0 -7
BITMAP
0000
0000
0000
0000
0000
0000
0000
0000
0000
0000
0000
0080
0100
0300
0300
0380
03FC
01FC
007C
0000
0000
0000
001C
00F0
0380
0000
ENDCHAR

STARTCHAR Line
ENCODING 140
SWIDTH 857 0
DWIDTH 14 0
BBX 14 26 0 -7
BITMAP
0000
0000
0000
0038
007C
0044
0044
007C
0038
0000
0000
0080
0100
0300
0300
0380
03FC
01FC
007C
0000
0000
0000
0000
0000
0000
0000
ENDCHAR

STARTCHAR Line
ENCODING 141
SWIDTH 857 0
DWIDTH 14 0
BBX 14 26 0 -7
BITMAP
0000
0000
0000
0004
0024
0124
013C
01F8
00C0
0000
0000
0080
0100
0300
0300
0300
03FC
01FC
007C
0000
0000
0000
0000
0000
0000
0000
ENDCHAR

STARTCHAR Alef
ENCODING 142
SWIDTH 857 0
DWIDTH 14 0
BBX 14 26 0 -7
BITMAP
01C0
0F00
38E0
0780
1C00
0080
0180
0180
0180
0180
0180
0180
0180
0180
0180
0180
0180
0180
0180
0100
0000
0000
0000
0000
0000
0000
ENDCHAR

STARTCHAR Desc
ENCODING 143
SWIDTH 857 0
DWIDTH 14 0
BBX 14 26 0 -7
BITMAP
0000
0000
0000
0000
0000
0000
0018
003C
0034
0634
0F1C
0B78
03E8
0380
0600
0000
0080
0100
0300
0300
0300
0380
01FC
01FC
007C
0000
ENDCHAR

STARTCHAR Jeem
ENCODING 144
SWIDTH 857 0
DWIDTH 14 0
BBX 14 26 0 -7
BITMAP
0000
0000
0000
0000
0000
0000
0000
0000
0000
0000
0000
0000
3C00
7F80
FFF8
8FF0
1C00
3000
2180
63C0
6180
7000
7808
3FF0
1FE0
0780
ENDCHAR

STARTCHAR Hah
ENCODING 145
SWIDTH 857 0
DWIDTH 14 0
BBX 14 26 0 -7
BITMAP
0000
0000
0000
0000
0000
0000
0000
0000
0000
0000
0000
0000
3C00
7F80
FFF8
8FF0
1C00
3000
2000
6000
6000
7000
7808
3FF0
1FE0
0780
ENDCHAR

STARTCHAR Kha
ENCODING 146
SWIDTH 857 0
DWIDTH 14 0
BBX 14 26 0 -7
BITMAP
0000
0000
0000
0000
0000
0000
0000
0300
0780
0300
0000
0000
3C00
7F80
FFF8
8FF0
1C00
3000
2000
6000
6000
7000
7808
3FF0
1FE0
0780
ENDCHAR

STARTCHAR Teh
ENCODING 147
SWIDTH 857 0
DWIDTH 14 0
BBX 14 26 0 -7
BITMAP
0000
00C0
0DE0
1EC0
0C00
0000
0020
0060
0060
00E0
01E0
0760
0E60
1C70
3CF0
3FF8
3FBC
1F1C
000C
0000
0000
0000
0000
0000
0000
0000
ENDCHAR

STARTCHAR Alef
ENCODING 148
SWIDTH 857 0
DWIDTH 14 0
BBX 14 26 0 -7
BITMAP
0000
0000
0000
0100
0300
0300
0300
0300
0300
0300
0300
0300
0300
0300
0300
0380
01FC
01FC
007C
0000
0000
0000
0000
0000
0000
0000
ENDCHAR

STARTCHAR Yeh
ENCODING 149
SWIDTH 857 0
DWIDTH 14 0
BBX 14 26 0 -7
BITMAP
0000
0000
0000
0000
0000
0000
0000
0000
0000
0000
0000
0000
0000
0000
0000
1000
200C
203C
607C
60C0
60F0
7078
7FF8
3FE0
1980
1980
ENDCHAR

STARTCHAR Yeh
ENCODING 150
SWIDTH 857 0
DWIDTH 14 0
BBX 14 26 0 -7
BITMAP
0000
0000
0000
0000
0000
0000
0000
0000
0380
0600
06C0
0380
0E00
0000
0000
1000
200C
203C
607C
60C0
60F0
6078
7018
7FF0
3FE0
0F80
ENDCHAR

STARTCHAR Alef
ENCODING 151
SWIDTH 857 0
DWIDTH 14 0
BBX 14 26 0 -7
BITMAP
0000
0000
0000
0000
0000
0000
0000
0000
0000
0000
0000
0000
0000
0000
0000
1000
200C
203C
607C
60C0
60F0
6078
7018
7FF0
3FE0
0F80
ENDCHAR

STARTCHAR Lam
ENCODING 152
SWIDTH 857 0
DWIDTH 14 0
BBX 14 26 0 -7
BITMAP
7000
C000
D800
7010
D030
3870
3C70
1E38
0B30
01B0
00B0
00E0
0060
00E0
00B0
01B0
0730
07E0
07C0
0000
0000
0000
0000
0000
0000
0000
ENDCHAR

STARTCHAR Lam
ENCODING 153
SWIDTH 857 0
DWIDTH 14 0
BBX 14 26 0 -7
BITMAP
3800
7E40
8380
0010
1030
3870
3C70
1E38
0B30
01B0
00B0
00E0
0060
00E0
00B0
01B0
0730
07E0
07C0
0000
0000
0000
0000
0000
0000
0000
ENDCHAR

STARTCHAR Hamza
ENCODING 154
SWIDTH 857 0
DWIDTH 14 0
BBX 14 26 0 -7
BITMAP
0000
0000
0000
0010
1030
3870
3C70
1E38
0B30
01B0
00B0
00E0
0060
00E0
00B0
01B0
0730
07E0
07C0
0000
0700
0C00
0D80
0700
0C00
0000
ENDCHAR

STARTCHAR Lam
ENCODING 155
SWIDTH 857 0
DWIDTH 14 0
BBX 14 26 0 -7
BITMAP
0000
0000
0000
0010
1030
3870
3C70
1E38
0B30
01B0
00B0
00E0
0060
00E0
00B0
01B0
0730
07E0
07C0
0000
0000
0000
0000
0000
0000
0000
ENDCHAR

STARTCHAR Lam
ENCODING 156
SWIDTH 857 0
DWIDTH 14 0
BBX 14 26 0 -7
BITMAP
0000
0000
0000
0100
0300
0300
0300
0300
0300
0300
0300
0300
0300
0300
0300
0780
FFFC
FDFC
F07C
0000
0000
0000
0000
0000
0000
0000
ENDCHAR

STARTCHAR Alef
ENCODING 157
SWIDTH 857 0
DWIDTH 14 0
BBX 14 26 0 -7
BITMAP
0E00
1800
1B00
0E00
1900
0300
0300
0300
0300
0300
0300
0300
0300
0300
0300
0380
01FC
01FC
007C
0000
0000
0000
0000
0000
0000
0000
ENDCHAR

STARTCHAR Alef
ENCODING 158
SWIDTH 857 0
DWIDTH 14 0
BBX 14 26 0 -7
BITMAP
0700
0FC8
1070
0100
0300
0300
0300
0300
0300
0300
0300
0300
0300
0300
0300
0380
01FC
01FC
007C
0000
0000
0000
0000
0000
0000
0000
ENDCHAR

STARTCHAR Hamza
ENCODING 159
SWIDTH 857 0
DWIDTH 14 0
BBX 14 26 0 -7
BITMAP
0000
0000
0000
0100
0300
0300
0300
0300
0300
0300
0300
0300
0300
0300
0300
0380
01FC
01FC
007C
0000
0380
0600
06C0
0380
0600
0000
ENDCHAR

STARTCHAR Meem
ENCODING 161
SWIDTH 857 0
DWIDTH 14 0
BBX 14 26 0 -7
BITMAP
0000
0000
0000
0000
0000
0000
0000
0000
0000
0000
0000
00F0
01F8
03FC
071C
0F0C
FF8C
FFFC
F1F8
00F0
0000
0000
0000
0000
0000
0000
ENDCHAR

STARTCHAR Noon
ENCODING 162
SWIDTH 857 0
DWIDTH 14 0
BBX 14 26 0 -7
BITMAP
0000
0000
0000
0000
0000
0000
0300
0780
0300
0000
0000
0008
001C
001C
000C
000C
FFFC
FFF8
FFF0
0000
0000
0000
0000
0000
0000
0000
ENDCHAR

STARTCHAR Qaf
ENCODING 163
SWIDTH 857 0
DWIDTH 14 0
BBX 14 26 0 -7
BITMAP
0000
0300
3780
7B00
3000
0000
0070
00F8
01F8
019C
018C
01DC
01FC
00EC
000C
001C
FFFC
FFF8
FFF0
0000
0000
0000
0000
0000
0000
0000
ENDCHAR

STARTCHAR Yeh
ENCODING 164
SWIDTH 857 0
DWIDTH 14 0
BBX 14 26 0 -7
BITMAP
0000
0000
0000
0000
0000
0000
0000
0000
0000
0000
0000
0008
001C
001C
000C
000C
FFFC
FFF8
FFF0
0000
0000
00C0
0DE0
1EC0
0C00
0000
ENDCHAR

STARTCHAR Seen
ENCODING 165
SWIDTH 857 0
DWIDTH 14 0
BBX 14 26 0 -7
BITMAP
0000
0000
0000
0000
0000
0000
0000
0000
0000
0000
0000
0008
211C
739C
738C
318C
FFFC
EF78
CE70
0000
0000
0000
0000
0000
0000
0000
ENDCHAR

STARTCHAR Sheen
ENCODING 166
SWIDTH 857 0
DWIDTH 14 0
BBX 14 26 0 -7
BITMAP
0000
0000
0000
0300
0780
0300
0060
0CF0
1E60
0C00
0000
0008
211C
739C
738C
318C
F7FC
EF78
CE70
0000
0000
0000
0000
0000
0000
0000
ENDCHAR

STARTCHAR Sad
ENCODING 167
SWIDTH 857 0
DWIDTH 14 0
BBX 14 26 0 -7
BITMAP
0000
0000
0000
0000
0000
0000
0000
0000
0000
0000
0000
01E0
03F0
47F8
4638
6C1C
FFFC
FFF8
9FF0
0800
0800
0800
0000
0000
0000
0000
ENDCHAR

STARTCHAR Dad
ENCODING 168
SWIDTH 857 0
DWIDTH 14 0
BBX 14 26 0 -7
BITMAP
0000
0000
0000
0000
0000
0000
0600
0F00
0600
0000
0000
01E0
03F0
47F8
4638
6C1C
FFFC
FFF8
9FF0
0800
0800
0800
0000
0000
0000
0000
ENDCHAR

STARTCHAR Shadda
ENCODING 169
SWIDTH 857 0
DWIDTH 14 0
BBX 14 26 0 -7
BITMAP
0000
0000
0000
0070
03C0
0E00
0010
0090
0490
04F0
07E0
0300
0000
0000
0000
0000
FFFC
FFFC
FFFC
0000
0000
0000
0000
0000
0000
0000
ENDCHAR

STARTCHAR Jeem
ENCODING 170
SWIDTH 857 0
DWIDTH 14 0
BBX 14 26 0 -7
BITMAP
0000
0000
0000
0000
0000
0000
0000
0000
0000
0000
3800
7E00
7F80
47F8
01F8
1FF8
FF80
FC00
E000
0000
0600
0F00
0600
0000
0000
0000
ENDCHAR

STARTCHAR Hah
ENCODING 171
SWIDTH 857 0
DWIDTH 14 0
BBX 14 26 0 -7
BITMAP
0000
0000
0000
0000
0000
0000
0000
0000
0000
0000
3800
7E00
7F80
47F8
01F8
1FF8
FF80
FC00
E000
0000
0000
0000
0000
0000
0000
0000
ENDCHAR

STARTCHAR Arabic
ENCODING 172
SWIDTH 857 0
DWIDTH 14 0
BBX 14 26 0 -7
BITMAP
0000
0000
0000
0000
0000
0000
0000
0000
0000
0000
0000
0000
0100
0200
0600
0400
0E00
0F00
0F00
0600
0000
0000
0000
0000
0000
0000
ENDCHAR

STARTCHAR Ain
ENCODING 173
SWIDTH 857 0
DWIDTH 14 0
BBX 14 26 0 -7
BITMAP
0000
0000
0000
0000
0000
0000
0000
0000
0000
0000
0000
0700
0F80
1F80
0700
0F80
FFFC
F9FC
E07C
0000
0000
0000
0000
0000
0000
0000
ENDCHAR

STARTCHAR Ghain
ENCODING 174
SWIDTH 857 0
DWIDTH 14 0
BBX 14 26 0 -7
BITMAP
0000
0000
0000
0000
0000
0000
0600
0F00
0600
0000
0000
0700
0F80
1F80
0700
0F80
FFFC
F9FC
E07C
0000
0000
0000
0000
0000
0000
0000
ENDCHAR

STARTCHAR Heh
ENCODING 175
SWIDTH 857 0
DWIDTH 14 0
BBX 14 26 0 -7
BITMAP
0000
0000
0000
0000
0000
0000
0000
0080
01C0
03C0
03C0
06C0
04C0
0C80
0980
0B00
FFFC
FFFC
FFFC
1980
18C0
0C60
0FE0
07E0
03C0
0000
ENDCHAR

STARTCHAR Arabic
ENCODING 176
SWIDTH 857 0
DWIDTH 14 0
BBX 14 26 0 -7
BITMAP
0000
0000
0000
0000
0000
0000
0000
0000
0000
0200
0700
0F80
1FC0
0F80
0700
0200
0000
0000
0000
0000
0000
0000
0000
0000
0000
0000
ENDCHAR

STARTCHAR Arabic
ENCODING 177
SWIDTH 857 0
DWIDTH 14 0
BBX 14 26 0 -7
BITMAP
0000
0000
0000
0400
0E00
0E00
0F00
0F00
0700
0380
0380
0180
01C0
01C0
00C0
00C0
00C0
0040
0040
0000
0000
0000
0000
0000
0000
0000
ENDCHAR

STARTCHAR Arabic
ENCODING 178
SWIDTH 857 0
DWIDTH 14 0
BBX 14 26 0 -7
BITMAP
0000
0000
0000
1010
3810
3E30
3FF0
3FE0
1FC0
0E00
0E00
0600
0700
0700
0300
0300
0300
0100
0100
0000
0000
0000
0000
0000
0000
0000
ENDCHAR

STARTCHAR Arabic
ENCODING 179
SWIDTH 857 0
DWIDTH 14 0
BBX 14 26 0 -7
BITMAP
0000
0000
0000
2088
7088
79D8
7FF8
3FF0
1F60
1C00
0C00
0E00
0E00
0600
0600
0600
0600
0200
0200
0000
0000
0000
0000
0000
0000
0000
ENDCHAR

STARTCHAR Arabic
ENCODING 180
SWIDTH 857 0
DWIDTH 14 0
BBX 14 26 0 -7
BITMAP
0000
0000
0180
0380
0780
0E00
1C00
3C00
3E00
1F00
0F80
0780
0700
0E00
1C00
3800
3E00
1FE0
0FE0
03C0
0000
0000
0000
0000
0000
0000
ENDCHAR

STARTCHAR Arabic
ENCODING 181
SWIDTH 857 0
DWIDTH 14 0
BBX 14 26 0 -7
BITMAP
0000
0000
0000
0000
0000
0000
0000
0780
0FC0
1FE0
19E0
30E0
3060
38E0
3FE0
1FC0
0F80
0000
0000
0000
0000
0000
0000
0000
0000
0000
ENDCHAR

STARTCHAR Arabic
ENCODING 182
SWIDTH 857 0
DWIDTH 14 0
BBX 14 26 0 -7
BITMAP
0000
0000
0000
2020
3060
3FE0
3FE0
1FC0
07C0
00C0
00C0
00E0
00E0
0070
0070
0070
0030
0030
0010
0000
0000
0000
0000
0000
0000
0000
ENDCHAR

STARTCHAR Arabic
ENCODING 183
SWIDTH 857 0
DWIDTH 14 0
BBX 14 26 0 -7
BITMAP
0000
0000
0000
2008
3018
3838
3838
3C78
1C70
0C60
0EE0
06C0
07C0
07C0
0380
0380
0380
0100
0100
0000
0000
0000
0000
0000
0000
0000
ENDCHAR

STARTCHAR Arabic
ENCODING 184
SWIDTH 857 0
DWIDTH 14 0
BBX 14 26 0 -7
BITMAP
0000
0000
0000
0100
0100
0380
0380
0380
07C0
07C0
06C0
0EE0
0C60
1C70
3C78
3838
3838
3018
2008
0000
0000
0000
0000
0000
0000
0000
ENDCHAR

STARTCHAR Arabic
ENCODING 185
SWIDTH 857 0
DWIDTH 14 0
BBX 14 26 0 -7
BITMAP
0000
0000
0000
0E00
1F00
1F00
3380
2180
3180
3F80
3FC0
1DC0
01C0
00E0
00E0
00F0
0070
0060
0020
0000
0000
0000
0000
0000
0000
0000
ENDCHAR

STARTCHAR Ghain
ENCODING 186
SWIDTH 857 0
DWIDTH 14 0
BBX 14 26 0 -7
BITMAP
0000
0000
0000
0000
0000
0000
0600
0F00
0600
0000
0000
0700
0F80
1F80
0700
0F80
1DFC
18FC
303C
3000
3000
3800
3C08
1FF0
1FE0
0780
ENDCHAR

STARTCHAR Arabic
ENCODING 187
SWIDTH 857 0
DWIDTH 14 0
BBX 14 26 0 -7
BITMAP
0000
0000
0000
0000
0000
0000
0080
0100
0300
0200
0700
0780
0780
0300
0000
0000
0000
0300
0780
0780
0300
0000
0000
0000
0000
0000
ENDCHAR

STARTCHAR Kaf
ENCODING 188
SWIDTH 857 0
DWIDTH 14 0
BBX 14 26 0 -7
BITMAP
0000
0000
0000
0018
0078
01F0
07C0
1F00
3C00
3000
3C00
1F00
07C0
01F0
0078
001C
FFFC
FFF8
FFF0
0000
0000
0000
0000
0000
0000
0000
ENDCHAR

STARTCHAR Lam
ENCODING 189
SWIDTH 857 0
DWIDTH 14 0
BBX 14 26 0 -7
BITMAP
0000
0000
0000
0004
000C
001C
001C
000C
000C
000C
000C
000C
000C
000C
000C
001C
FFFC
FFF8
FFF0
0000
0000
0000
0000
0000
0000
0000
ENDCHAR

STARTCHAR Hamza
ENCODING 190
SWIDTH 857 0
DWIDTH 14 0
BBX 14 26 0 -7
BITMAP
0000
0000
0000
0010
6010
7830
7C30
3E30
0670
0370
0370
01F0
01F0
01B0
01B0
0338
061C
1C1C
700C
0000
0E00
1A00
1800
1B00
0E00
1800
ENDCHAR

STARTCHAR Arabic
ENCODING 191
SWIDTH 857 0
DWIDTH 14 0
BBX 14 26 0 -7
BITMAP
0000
0000
0000
0000
0000
0FC0
1CE0
3870
38F0
38F0
3860
1C00
0E00
0700
0380
0180
0180
0000
0000
0180
03C0
03C0
0180
0000
0000
0000
ENDCHAR

STARTCHAR Lam
ENCODING 192
SWIDTH 857 0
DWIDTH 14 0
BBX 14 26 0 -7
BITMAP
3800
7E40
8380
0010
6010
7830
7C30
3E30
0670
0370
0370
01F0
01F0
01B0
01B0
0338
061C
1C1C
700C
0000
0000
0000
0000
0000
0000
0000
ENDCHAR

STARTCHAR Hamza
ENCODING 193
SWIDTH 857 0
DWIDTH 14 0
BBX 14 26 0 -7
BITMAP
0000
0000
0000
0000
0000
0000
0000
0000
0000
0000
0000
0380
0780
0C80
0C00
0E40
07C0
0F00
1C00
0000
0000
0000
0000
0000
0000
0000
ENDCHAR

STARTCHAR Alef
ENCODING 194
SWIDTH 857 0
DWIDTH 14 0
BBX 14 26 0 -7
BITMAP
0700
0FC8
1070
0100
0300
0300
0300
0300
0300
0300
0300
0300
0300
0300
0300
0300
0300
0300
0300
0200
0000
0000
0000
0000
0000
0000
ENDCHAR

STARTCHAR Alef
ENCODING 195
SWIDTH 857 0
DWIDTH 14 0
BBX 14 26 0 -7
BITMAP
0E00
1800
1B00
0E00
1900
0300
0300
0300
0300
0300
0300
0300
0300
0300
0300
0300
0300
0300
0300
0200
0000
0000
0000
0000
0000
0000
ENDCHAR

STARTCHAR Waw
ENCODING 196
SWIDTH 857 0
DWIDTH 14 0
BBX 14 26 0 -7
BITMAP
0000
0000
0000
00E0
01E0
0300
03B0
01E0
0380
0600
0030
0078
00F8
00DC
018C
01FC
01FC
00FC
001C
0018
0078
03F0
3FE0
0F80
0000
0000
ENDCHAR

STARTCHAR Hamza
ENCODING 197
SWIDTH 857 0
DWIDTH 14 0
BBX 14 26 0 -7
BITMAP
0000
0000
0000
0100
0300
0300
0300
0300
0300
0300
0300
0300
0300
0300
0300
0300
0300
0300
0300
0000
0380
0780
0C00
0EC0
0780
0E00
ENDCHAR

STARTCHAR Yeh
ENCODING 198
SWIDTH 857 0
DWIDTH 14 0
BBX 14 26 0 -7
BITMAP
0000
0000
0000
0000
0780
0D80
0C00
0EC0
0780
0600
0C00
0008
001C
001C
000C
000C
FFFC
FFF8
FFF0
0000
0000
0000
0000
0000
0000
0000
ENDCHAR

STARTCHAR Alef
ENCODING 199
SWIDTH 857 0
DWIDTH 14 0
BBX 14 26 0 -7
BITMAP
0000
0000
0000
0100
0300
0300
0300
0300
0300
0300
0300
0300
0300
0300
0300
0300
0300
0300
0300
0200
0000
0000
0000
0000
0000
0000
ENDCHAR

STARTCHAR Beh
ENCODING 200
SWIDTH 857 0
DWIDTH 14 0
BBX 14 26 0 -7
BITMAP
0000
0000
0000
0000
0000
0000
0000
0000
0000
0000
0000
0008
001C
001C
000C
000C
FFFC
FFF8
FFF0
0000
0000
0180
03C0
0180
0000
0000
ENDCHAR

STARTCHAR Teh
ENCODING 201
SWIDTH 857 0
DWIDTH 14 0
BBX 14 26 0 -7
BITMAP
0000
0000
0000
0000
0C60
1EF0
0C60
0000
0000
0380
07C0
0FE0
0FE0
1C70
1830
1830
1FF0
0FE0
07C0
0000
0000
0000
0000
0000
0000
0000
ENDCHAR

STARTCHAR Teh
ENCODING 202
SWIDTH 857 0
DWIDTH 14 0
BBX 14 26 0 -7
BITMAP
0000
0000
0000
0000
0000
00C0
0DE0
1EC0
0C00
0000
0000
0008
001C
001C
000C
000C
FFFC
FFF8
FFF0
0000
0000
0000
0000
0000
0000
0000
ENDCHAR

STARTCHAR Theh
ENCODING 203
SWIDTH 857 0
DWIDTH 14 0
BBX 14 26 0 -7
BITMAP
0000
0000
0000
0300
0780
0300
0060
0CF0
1E60
0C00
0000
0008
001C
001C
000C
000C
FFFC
FFF8
FFF0
0000
0000
0000
0000
0000
0000
0000
ENDCHAR

STARTCHAR Jeem
ENCODING 204
SWIDTH 857 0
DWIDTH 14 0
BBX 14 26 0 -7
BITMAP
0000
0000
0000
0000
0000
0000
0000
0000
0000
0000
3800
7E00
7F00
4F80
03E0
01F8
FFFC
FFFC
FFFC
0000
0000
0600
0F00
0600
0000
0000
ENDCHAR

STARTCHAR Hah
ENCODING 205
SWIDTH 857 0
DWIDTH 14 0
BBX 14 26 0 -7
BITMAP
0000
0000
0000
0000
0000
0000
0000
0000
0000
0000
3800
7E00
7F00
4F80
03E0
01F8
FFFC
FFFC
FFFC
0000
0000
0000
0000
0000
0000
0000
ENDCHAR

STARTCHAR Khah
ENCODING 206
SWIDTH 857 0
DWIDTH 14 0
BBX 14 26 0 -7
BITMAP
0000
0000
0000
0000
0000
1800
3C00
1800
0000
0000
3800
7E00
7F00
4F80
03E0
01F8
FFFC
FFFC
FFFC
0000
0000
0000
0000
0000
0000
0000
ENDCHAR

STARTCHAR Dal
ENCODING 207
SWIDTH 857 0
DWIDTH 14 0
BBX 14 26 0 -7
BITMAP
0000
0000
0000
0000
0000
0000
0000
0000
00C0
00E0
00F0
00F8
0038
001C
000C
040C
07FC
07F8
03F0
0000
0000
0000
0000
0000
0000
0000
ENDCHAR

STARTCHAR Thal
ENCODING 208
SWIDTH 857 0
DWIDTH 14 0
BBX 14 26 0 -7
BITMAP
0000
0000
0000
0180
03C0
0180
0000
0000
00C0
00E0
00F0
00F8
0038
001C
000C
040C
07FC
07F8
03F0
0000
0000
0000
0000
0000
0000
0000
ENDCHAR

STARTCHAR Ra
ENCODING 209
SWIDTH 857 0
DWIDTH 14 0
BBX 14 26 0 -7
BITMAP
0000
0000
0000
0000
0000
0000
0000
0000
0000
0000
0000
0000
0008
001C
001C
000C
000C
000C
001C
0038
00F8
03F0
3FE0
0F80
0000
0000
ENDCHAR

STARTCHAR Zain
ENCODING 210
SWIDTH 857 0
DWIDTH 14 0
BBX 14 26 0 -7
BITMAP
0000
0000
0000
0000
0000
0000
0030
0078
0030
0000
0000
0000
0008
001C
001C
000C
000C
000C
001C
0038
00F8
03F0
3FE0
0F80
0000
0000
ENDCHAR

STARTCHAR Seen
ENCODING 211
SWIDTH 857 0
DWIDTH 14 0
BBX 14 26 0 -7
BITMAP
0000
0000
0000
0000
0000
0000
0000
0000
0000
0000
0000
0008
011C
239C
738C
718C
33FC
3FF8
3F70
2E00
6000
E000
C000
C000
0000
0000
ENDCHAR

STARTCHAR Sheen
ENCODING 212
SWIDTH 857 0
DWIDTH 14 0
BBX 14 26 0 -7
BITMAP
0000
0000
0000
0600
0F00
0600
00C0
19E0
3CC0
1800
0000
0008
011C
239C
738C
718C
33FC
3FF8
3F70
2E00
6000
E000
C000
C000
0000
0000
ENDCHAR

STARTCHAR Sad
ENCODING 213
SWIDTH 857 0
DWIDTH 14 0
BBX 14 26 0 -7
BITMAP
0000
0000
0000
0000
0000
0000
0000
0000
0000
0000
0000
01E0
03F0
07F8
4638
6C1C
7FFC
3FF8
2FF0
2400
6400
E400
C000
C000
0000
0000
ENDCHAR

STARTCHAR Dad
ENCODING 214
SWIDTH 857 0
DWIDTH 14 0
BBX 14 26 0 -7
BITMAP
0000
0000
0000
0000
0000
0000
0600
0F00
0600
0000
0000
01E0
03F0
07F8
4638
6C1C
7FFC
3FF8
2FF0
2400
6400
E400
C000
C000
0000
0000
ENDCHAR

STARTCHAR Tah
ENCODING 215
SWIDTH 857 0
DWIDTH 14 0
BBX 14 26 0 -7
BITMAP
0000
0000
0000
2000
6000
E000
E000
7000
6000
6000
6000
61E0
63F0
67F8
6638
6C1C
FFFC
FFF8
FFF0
0000
0000
0000
0000
0000
0000
0000
ENDCHAR

STARTCHAR Zah
ENCODING 216
SWIDTH 857 0
DWIDTH 14 0
BBX 14 26 0 -7
BITMAP
0000
0000
0000
2000
6000
E180
E3C0
7180
6000
6000
6000
61E0
63F0
67F8
6638
6C1C
FFFC
FFF8
FFF0
0000
0000
0000
0000
0000
0000
0000
ENDCHAR

STARTCHAR Ain
ENCODING 217
SWIDTH 857 0
DWIDTH 14 0
BBX 14 26 0 -7
BITMAP
0000
0000
0000
0000
0000
0000
0000
0E00
1F00
3800
3020
3060
38E0
1FC0
0F80
0F00
0E00
1C00
1800
3000
3000
3800
3FF8
1FE0
0F80
0000
ENDCHAR

STARTCHAR Ghain
ENCODING 218
SWIDTH 857 0
DWIDTH 14 0
BBX 14 26 0 -7
BITMAP
0000
0000
0C00
1E00
0C00
0000
0000
0E00
1F00
3800
3020
3060
38E0
1FC0
0F80
0F00
0E00
1C00
1800
3000
3000
3800
3FF8
1FE0
0F80
0000
ENDCHAR

STARTCHAR Jeem
ENCODING 219
SWIDTH 857 0
DWIDTH 14 0
BBX 14 26 0 -7
BITMAP
0000
0000
0000
0000
0000
0000
0000
0000
0000
0000
3C00
7FF0
FFF0
8FE0
1C80
38C0
30FC
607C
633C
6780
6300
7000
7808
3FF0
1FE0
0780
ENDCHAR

STARTCHAR Hah
ENCODING 220
SWIDTH 857 0
DWIDTH 14 0
BBX 14 26 0 -7
BITMAP
0000
0000
0000
0000
0000
0000
0000
0000
0000
0000
3C00
7FF0
FFF0
8FE0
1C80
38C0
30FC
607C
603C
6000
6000
7000
7808
3FF0
1FE0
0780
ENDCHAR

STARTCHAR Khah
ENCODING 221
SWIDTH 857 0
DWIDTH 14 0
BBX 14 26 0 -7
BITMAP
0000
0000
0000
0000
0000
0300
0780
0300
0000
0000
3C00
7FF0
FFF0
8FE0
1C80
38C0
30FC
607C
603C
6000
6000
7000
7808
3FF0
1FC0
0780
ENDCHAR

STARTCHAR Shadda
ENCODING 222
SWIDTH 857 0
DWIDTH 14 0
BBX 14 26 0 -7
BITMAP
0000
0000
0000
0000
0000
0010
0090
0490
04F0
07E0
0300
0000
0000
0000
0000
0000
FFFC
FFFC
FFFC
0000
0000
0000
0000
0000
0000
0000
ENDCHAR

STARTCHAR Yeh
ENCODING 223
SWIDTH 857 0
DWIDTH 14 0
BBX 14 26 0 -7
BITMAP
0000
0000
0000
0000
0700
0F00
1800
1980
0F00
1C00
3000
0038
00F8
11F8
2308
2780
47E0
43F0
4078
6018
6018
7078
3FF0
3FE0
0F80
0000
ENDCHAR

STARTCHAR Tatweel
ENCODING 224
SWIDTH 857 0
DWIDTH 14 0
BBX 14 26 0 -7
BITMAP
0000
0000
0000
0000
0000
0000
0000
0000
0000
0000
0000
0000
0000
0000
0000
0000
FFFC
FFFC
FFFC
0000
0000
0000
0000
0000
0000
0000
ENDCHAR

STARTCHAR Feh
ENCODING 225
SWIDTH 857 0
DWIDTH 14 0
BBX 14 26 0 -7
BITMAP
0000
0000
0C00
1E00
0C00
0000
0070
00F8
01FC
019C
018C
01DC
01FC
00EC
000C
001C
FFFC
FFF8
FFF0
0000
0000
0000
0000
0000
0000
0000
ENDCHAR

STARTCHAR Qaf
ENCODING 226
SWIDTH 857 0
DWIDTH 14 0
BBX 14 26 0 -7
BITMAP
0000
0000
0000
0000
0030
0378
07B0
0300
0000
0000
0030
0078
00F8
00DC
098C
11FC
11FC
20EC
200C
200C
301C
3838
1FF8
1FF0
07C0
0000
ENDCHAR

STARTCHAR Kaf
ENCODING 227
SWIDTH 857 0
DWIDTH 14 0
BBX 14 26 0 -7
BITMAP
0000
0000
0000
0004
000C
000C
000C
00CC
01CC
030C
038C
00CC
11CC
278C
600C
600C
701C
3FF8
3FF0
0FC0
0000
0000
0000
0000
0000
0000
ENDCHAR

STARTCHAR Lam
ENCODING 228
SWIDTH 857 0
DWIDTH 14 0
BBX 14 26 0 -7
BITMAP
0000
0000
0000
0004
000C
001C
001C
000C
000C
000C
000C
000C
000C
100C
200C
601C
601C
6038
7078
3FF0
1FE0
0F80
0000
0000
0000
0000
ENDCHAR

STARTCHAR Meem
ENCODING 229
SWIDTH 857 0
DWIDTH 14 0
BBX 14 26 0 -7
BITMAP
0000
0000
0000
0000
0000
0000
0000
0000
0000
0000
0000
01E0
03F0
03F8
063C
041C
05FC
03FC
07F8
0600
0600
0600
0700
0300
0300
0180
ENDCHAR

STARTCHAR Noon
ENCODING 230
SWIDTH 857 0
DWIDTH 14 0
BBX 14 26 0 -7
BITMAP
0000
0000
0000
0000
0000
0000
0000
0000
0000
0300
0780
0300
0000
0010
0038
0838
101C
101C
300C
300C
381C
3C38
1FF8
1FF0
07C0
0000
ENDCHAR

STARTCHAR Heh
ENCODING 231
SWIDTH 857 0
DWIDTH 14 0
BBX 14 26 0 -7
BITMAP
0000
0000
0000
0000
0000
0000
0000
0000
0000
0380
07C0
0FE0
0FE0
1C70
1830
1830
1FF0
0FE0
07C0
0000
0000
0000
0000
0000
0000
0000
ENDCHAR

STARTCHAR Waw
ENCODING 232
SWIDTH 857 0
DWIDTH 14 0
BBX 14 26 0 -7
BITMAP
0000
0000
0000
0000
0000
0000
0000
0000
0000
0000
0030
0078
00F8
00DC
018C
01FC
01FC
00FC
001C
0018
0078
03F0
3FE0
0F80
0000
0000
ENDCHAR

STARTCHAR Alef
ENCODING 233
SWIDTH 857 0
DWIDTH 14 0
BBX 14 26 0 -7
BITMAP
0000
0000
0000
0000
0000
0000
0000
0000
0000
0000
0038
00F8
11F8
2308
2780
47E0
43F0
4078
6018
6018
7078
3FF0
3FE0
0F80
0000
0000
ENDCHAR

STARTCHAR Yeh
ENCODING 234
SWIDTH 857 0
DWIDTH 14 0
BBX 14 26 0 -7
BITMAP
0000
0000
0000
0000
0000
0000
0000
0000
0000
0000
0038
00F8
11F8
2308
2780
47E0
43F0
4078
6018
6038
70F8
3FF0
3FE0
0F80
18C0
18C0
ENDCHAR

STARTCHAR Fathatan
ENCODING 235
SWIDTH 857 0
DWIDTH 14 0
BBX 14 26 0 -7
BITMAP
0000
0000
0000
0000
0070
03C0
0E00
0038
01E0
0700
0000
0000
0000
0000
0000
0000
0000
0000
0000
0000
0000
0000
0000
0000
0000
0000
ENDCHAR

STARTCHAR Dammatan
ENCODING 236
SWIDTH 857 0
DWIDTH 14 0
BBX 14 26 0 -7
BITMAP
0000
0000
0000
0000
0030
0078
0C68
1E68
1678
06F0
07D0
0F00
1C00
0000
0000
0000
0000
0000
0000
0000
0000
0000
0000
0000
0000
0000
ENDCHAR

STARTCHAR Kasratan
ENCODING 237
SWIDTH 857 0
DWIDTH 14 0
BBX 14 26 0 -7
BITMAP
0000
0000
0000
0000
0000
0000
0000
0000
0000
0000
0000
0000
0000
0000
0000
0000
0000
0000
0000
0000
0070
03C0
0E00
0038
01E0
0700
ENDCHAR

STARTCHAR Fatha
ENCODING 238
SWIDTH 857 0
DWIDTH 14 0
BBX 14 26 0 -7
BITMAP
0000
0000
0000
0000
0070
03C0
0E00
0000
0000
0000
0000
0000
0000
0000
0000
0000
0000
0000
0000
0000
0000
0000
0000
0000
0000
0000
ENDCHAR

STARTCHAR Damma
ENCODING 239
SWIDTH 857 0
DWIDTH 14 0
BBX 14 26 0 -7
BITMAP
0000
0000
0000
0000
0060
00B0
00D0
0070
0078
01C0
0700
0000
0000
0000
0000
0000
0000
0000
0000
0000
0000
0000
0000
0000
0000
0000
ENDCHAR

STARTCHAR Kasra
ENCODING 240
SWIDTH 857 0
DWIDTH 14 0
BBX 14 26 0 -7
BITMAP
0000
0000
0000
0000
0000
0000
0000
0000
0000
0000
0000
0000
0000
0000
0000
0000
0000
0000
0000
0000
0000
0000
0070
03C0
0E00
0000
ENDCHAR

STARTCHAR Shadda
ENCODING 241
SWIDTH 857 0
DWIDTH 14 0
BBX 14 26 0 -7
BITMAP
0000
0000
0000
0000
0010
0090
0490
04F0
07E0
0300
0000
0000
0000
0000
0000
0000
0000
0000
0000
0000
0000
0000
0000
0000
0000
0000
ENDCHAR

STARTCHAR Sukun
ENCODING 242
SWIDTH 857 0
DWIDTH 14 0
BBX 14 26 0 -7
BITMAP
0000
0000
0000
0000
00E0
01F0
0110
0110
01F0
00E0
0000
0000
0000
0000
0000
0000
0000
0000
0000
0000
0000
0000
0000
0000
0000
0000
ENDCHAR

STARTCHAR Ain
ENCODING 243
SWIDTH 857 0
DWIDTH 14 0
BBX 14 26 0 -7
BITMAP
0000
0000
0000
0000
0000
0000
0000
0000
0300
0780
0FC0
18C0
1800
1C00
1EE0
0FE0
FFC0
FF00
F000
0000
0000
0000
0000
0000
0000
0000
ENDCHAR

STARTCHAR Ghain
ENCODING 244
SWIDTH 857 0
DWIDTH 14 0
BBX 14 26 0 -7
BITMAP
0000
0000
0000
0600
0F00
0600
0000
0000
0300
0780
0FC0
18C0
1800
1C00
1EE0
0FE0
FFC0
FF00
F000
0000
0000
0000
0000
0000
0000
0000
ENDCHAR

STARTCHAR Heh
ENCODING 245
SWIDTH 857 0
DWIDTH 14 0
BBX 14 26 0 -7
BITMAP
0000
0000
0000
0000
0000
0000
0800
1C00
1F00
1F80
0FC0
07E0
0CF0
0C78
0698
0F98
FFF8
FDF0
F000
0000
0000
0000
0000
0000
0000
0000
ENDCHAR

STARTCHAR Shadda
ENCODING 246
SWIDTH 857 0
DWIDTH 14 0
BBX 14 26 0 -7
BITMAP
0000
0000
0000
0070
03C0
0E10
0090
0490
04F0
07E0
0300
0000
0000
0000
0000
0000
0000
0000
0000
0000
0000
0000
0000
0000
0000
0000
ENDCHAR

STARTCHAR Shadda
ENCODING 247
SWIDTH 857 0
DWIDTH 14 0
BBX 14 26 0 -7
BITMAP
0000
00C0
0160
01A0
00E0
01F0
0F00
0010
0090
0490
04F0
07E0
0300
0000
0000
0000
0000
0000
0000
0000
0000
0000
0000
0000
0000
0000
ENDCHAR

STARTCHAR Kasra
ENCODING 248
SWIDTH 857 0
DWIDTH 14 0
BBX 14 26 0 -7
BITMAP
0000
0000
0000
0000
0020
0120
0920
09E0
0FC0
0600
0070
03C0
0E00
0000
0000
0000
0000
0000
0000
0000
0000
0000
0000
0000
0000
0000
ENDCHAR

STARTCHAR Shadda
ENCODING 249
SWIDTH 857 0
DWIDTH 14 0
BBX 14 26 0 -7
BITMAP
0000
00C0
0160
01A0
00E0
01F0
0F00
0010
0090
0490
04F0
07E0
0300
0000
0000
0000
FFFC
FFFC
FFFC
0000
0000
0000
0000
0000
0000
0000
ENDCHAR

STARTCHAR Kasra
ENCODING 250
SWIDTH 857 0
DWIDTH 14 0
BBX 14 26 0 -7
BITMAP
0000
0000
0000
0000
0020
0120
0920
09E0
0FC0
0600
0070
03C0
0E00
0000
0000
0000
FFFC
FFFC
FFFC
0000
0000
0000
0000
0000
0000
0000
ENDCHAR

STARTCHAR Fatha
ENCODING 251
SWIDTH 857 0
DWIDTH 14 0
BBX 14 26 0 -7
BITMAP
0000
0000
0000
0000
0000
0070
03C0
0E00
0000
0000
0000
0000
0000
0000
0000
0000
FFFC
FFFC
FFFC
0000
0000
0000
0000
0000
0000
0000
ENDCHAR

STARTCHAR Damma
ENCODING 252
SWIDTH 857 0
DWIDTH 14 0
BBX 14 26 0 -7
BITMAP
0000
0000
0000
0000
0060
00B0
00D0
0070
00F8
0780
0000
0000
0000
0000
0000
0000
FFFC
FFFC
FFFC
0000
0000
0000
0000
0000
0000
0000
ENDCHAR

STARTCHAR Kasra
ENCODING 253
SWIDTH 857 0
DWIDTH 14 0
BBX 14 26 0 -7
BITMAP
0000
0000
0000
0000
0000
0000
0000
0000
0000
0000
0000
0000
0000
0000
0000
0000
FFFC
FFFC
FFFC
0000
0000
0000
0070
01C0
0700
0000
ENDCHAR

STARTCHAR Sukun
ENCODING 254
SWIDTH 857 0
DWIDTH 14 0
BBX 14 26 0 -7
BITMAP
0000
0000
0000
0000
0000
00E0
01F0
0110
0110
01F0
00E0
0000
0000
0000
0000
0000
FFFC
FFFC
FFFC
0000
0000
0000
0000
0000
0000
0000
ENDCHAR
ENDFONT
